<?xml version="1.0" standalone="no"?><!DOCTYPE svg PUBLIC "-//W3C//DTD SVG 1.1//EN" "http://www.w3.org/Graphics/SVG/1.1/DTD/svg11.dtd"><svg t="1678981425806" class="icon" viewBox="0 0 1024 1024" version="1.1" xmlns="http://www.w3.org/2000/svg" p-id="3643" xmlns:xlink="http://www.w3.org/1999/xlink" width="200" height="200"><path d="M510.624598 1023.931667a100.364522 100.364522 0 0 1-53.385384-17.083323 492.213241 492.213241 0 0 0-369.426858-73.137976 53.385384 53.385384 0 0 1-64.596315-53.385384V53.385384A53.385384 53.385384 0 0 1 74.46601 0h150.546783a568.55434 568.55434 0 0 1 134.531168 16.015615 53.385384 53.385384 0 1 1-28.828108 103.033792A468.189818 468.189818 0 0 0 211.666447 106.770768H127.851394v713.228732a596.848594 596.848594 0 0 1 382.773204 96.093691 596.848594 596.848594 0 0 1 382.773204-96.093691V109.440037a491.145534 491.145534 0 0 0-326.718551 79.544223v517.838225a53.385384 53.385384 0 1 1-106.770768 0V163.893129a53.385384 53.385384 0 0 1 20.8203-42.708307 599.517863 599.517863 0 0 1 480.468456-106.770768 53.385384 53.385384 0 0 1 41.6406 53.385384v813.593253a53.385384 53.385384 0 0 1-64.596315 53.385384 492.213241 492.213241 0 0 0-369.426858 73.137976 100.364522 100.364522 0 0 1-58.190068 16.015616z" fill="#13227a" p-id="3644"></path></svg>